<?xml version="1.0" encoding="UTF-8" standalone="no"?>
<!DOCTYPE svg PUBLIC "-//W3C//DTD SVG 1.1//EN" "http://www.w3.org/Graphics/SVG/1.1/DTD/svg11.dtd">
<svg width="100%" height="100%" viewBox="0 0 100 100" version="1.1" xmlns="http://www.w3.org/2000/svg" xmlns:xlink="http://www.w3.org/1999/xlink" xml:space="preserve" xmlns:serif="http://www.serif.com/" style="fill-rule:evenodd;clip-rule:evenodd;stroke-linejoin:round;stroke-miterlimit:2;">
    <g transform="matrix(1,0,0,1,-392.897,0)">
        <g id="dropzone_icon" transform="matrix(0.84908,0,0,0.84908,406.483,222.459)">
            <rect x="-16" y="-262" width="117.774" height="117.774" style="fill:none;"/>
            <g transform="matrix(7.36091,0,0,7.36091,-16,-262)">
                <g transform="matrix(0.0893728,-2.15467e-17,-1.2728e-17,0.134737,-31.5767,-14.4207)">
                    <path d="M506.827,210.25C506.827,207.627 503.621,205.5 499.666,205.5C477.225,205.5 408.429,205.5 385.988,205.5C382.033,205.5 378.827,207.627 378.827,210.25C378.827,210.25 378.827,210.25 378.827,210.25C378.827,212.873 382.033,215 385.988,215C408.429,215 477.225,215 499.666,215C503.621,215 506.827,212.873 506.827,210.25C506.827,210.25 506.827,210.25 506.827,210.25Z" style="fill:rgb(90,104,112);fill-opacity:0.15;"/>
                </g>
                <g transform="matrix(6.85308e-18,0.111919,-0.197691,1.21051e-17,96.4629,-43.7221)">
                    <path d="M410.781,450.954C407.623,450.954 405.063,449.504 405.063,447.716C405.063,447.56 405.063,447.403 405.063,447.247C405.063,445.459 407.623,444.01 410.781,444.01C425.39,444.01 463.948,444.01 478.367,444.01C479.437,444.01 480.418,443.671 480.908,443.133C481.398,442.594 481.317,441.946 480.696,441.452C475.26,437.13 464.334,428.443 459.074,424.261C458.288,423.636 457.973,422.86 458.197,422.103C458.422,421.347 459.169,420.672 460.272,420.227C460.273,420.227 460.274,420.226 460.275,420.226C462.573,419.299 465.763,419.603 467.4,420.905C474.444,426.505 492.073,440.522 498.465,445.604C499.879,446.728 499.879,448.235 498.465,449.359C492.073,454.442 474.444,468.459 467.4,474.059C465.763,475.36 462.573,475.664 460.275,474.737C460.274,474.737 460.273,474.737 460.272,474.736C459.169,474.291 458.422,473.616 458.197,472.86C457.973,472.103 458.288,471.327 459.074,470.702C464.334,466.52 475.26,457.833 480.696,453.511C481.317,453.018 481.398,452.369 480.908,451.831C480.418,451.292 479.437,450.954 478.367,450.954C463.948,450.954 425.39,450.954 410.781,450.954Z" style="fill:rgb(90,104,112);fill-opacity:0.15;"/>
                </g>
            </g>
        </g>
    </g>
</svg>
